<?xml version="1.0" encoding="utf-8"?>
<!-- Generator: Adobe Illustrator 15.0.0, SVG Export Plug-In . SVG Version: 6.00 Build 0)  -->
<!DOCTYPE svg PUBLIC "-//W3C//DTD SVG 1.1//EN" "http://www.w3.org/Graphics/SVG/1.1/DTD/svg11.dtd">
<svg version="1.1" id="Layer_1" xmlns="http://www.w3.org/2000/svg" xmlns:xlink="http://www.w3.org/1999/xlink" x="0px" y="0px"
	 width="28px" height="20px" viewBox="0.538 0.5 28 20" enable-background="new 0.538 0.5 28 20" xml:space="preserve">
<path d="M28.537,2.5c0,1.104-0.895,2-2,2h-24c-1.104,0-2-0.896-2-2l0,0c0-1.104,0.896-2,2-2h24C27.643,0.5,28.537,1.396,28.537,2.5
	L28.537,2.5z"/>
<path d="M28.537,10.5c0,1.105-0.895,2-2,2h-24c-1.104,0-2-0.895-2-2l0,0c0-1.104,0.896-2,2-2h24
	C27.643,8.5,28.537,9.396,28.537,10.5L28.537,10.5z"/>
<path d="M28.537,18.5c0,1.104-0.895,1.999-2,1.999h-24c-1.104,0-2-0.895-2-1.999l0,0c0-1.104,0.896-2,2-2h24
	C27.643,16.5,28.537,17.396,28.537,18.5L28.537,18.5z"/>
</svg>
